<?xml version="1.0" encoding="UTF-8"?>
<svg id="Layer_2" data-name="Layer 2" xmlns="http://www.w3.org/2000/svg" viewBox="0 0 2460.58 715.8">
  <defs>
    <style>
      .cls-1 {
        letter-spacing: -.07em;
      }

      .cls-2 {
        letter-spacing: 0em;
      }

      .cls-3 {
        font-family: SourceSansRoman-Semibold, 'Source Sans Variable';
        font-size: 287.4px;
        font-variation-settings: 'wght' 600;
        font-weight: 600;
      }

      .cls-4 {
        letter-spacing: -.03em;
      }

      .cls-5 {
        letter-spacing: -.02em;
      }

      .cls-6 {
        letter-spacing: 0em;
      }

      .cls-7 {
        letter-spacing: -.1em;
      }

      .cls-8 {
        font-family: SourceSansRoman-Regular, 'Source Sans Variable';
        font-size: 113.3px;
        font-variation-settings: 'wght' 400;
      }

      .cls-9 {
        letter-spacing: 0em;
      }
    </style>
  </defs>
  <g>
    <path d="m769.83,533.32c-9.03,36.82-30.05,68.18-58.3,90.33-28.24,22.15-63.7,35.1-101.61,35.1l-157.79.41,136.75-185.46,27.31-144.15c83.13,3.07,147.86,66.95,157.27,144.63,2.32,19.11,1.3,39.07-3.64,59.15Z"/>
    <path d="m574.73,56.65c-38.3,0-71.7,26.07-80.99,63.24l-18.72,74.9-11.34,46.83-34.87,144.19c-82.66-3.39-146.95-66.91-156.52-144.19-2.38-19.24-1.38-39.31,3.59-59.54,9.03-36.82,30.05-68.18,58.29-90.33,28.24-22.15,63.71-35.1,101.62-35.1h138.93Z"/>
    <path d="m452.13,659.16h-232.91c-29.73,0-51.59-27.86-44.52-56.74l25.57-104.45c3.42-13.97,15.94-23.8,30.33-23.8h178.45l43.09,184.98Z"/>
    <path d="m870.98,113.4l-25.67,104.64c-3.4,13.84-15.8,23.57-30.06,23.57h-179.4l11.03-45.62h.29l8.72-36.38c.44-1.83.83-3.68,1.13-5.5v-.03c.83-4.75,1.21-9.47,1.21-14.12,0-44.77-36.33-83.32-83.52-83.32h251.74c29.74,0,51.6,27.88,44.52,56.76Z"/>
  </g>
  <text class="cls-3" transform="translate(892.58 383.94) scale(.83 1)"><tspan class="cls-4" x="0" y="0">S</tspan><tspan class="cls-5" x="149.17" y="0">t</tspan><tspan x="248.32" y="0">e</tspan><tspan class="cls-2" x="394.03" y="0">v</tspan><tspan x="534.57" y="0">e B</tspan><tspan class="cls-7" x="909.33" y="0">.</tspan><tspan class="cls-1" x="959.92" y="0">T</tspan><tspan x="1097.29" y="0">al</tspan><tspan class="cls-9" x="1323.48" y="0">w</tspan><tspan x="1535.58" y="0">a</tspan></text>
  <text class="cls-8" transform="translate(1176.37 538.45)"><tspan x="0" y="0">Design </tspan><tspan class="cls-6" x="342.95" y="0">y</tspan><tspan x="395.4" y="0">our mind</tspan></text>
</svg>