<?xml version="1.0" encoding="UTF-8"?>
<svg id="Calque_1" data-name="Calque 1" xmlns="http://www.w3.org/2000/svg" viewBox="0 0 1688.85 1543.45">
  <defs>
    <style>
      .cls-1 {
        stroke: #1d1d1b;
        stroke-miterlimit: 10;
        stroke-width: 5px;
      }
    </style>
  </defs>
  <path class="cls-1" d="m1290.66,1088.66c-16.31,66.53-54.3,123.17-105.34,163.2-51.01,40.03-115.09,63.41-183.57,63.41l-285.08.75,247.08-335.08,49.34-260.45c150.2,5.55,267.13,120.97,284.14,261.31,4.2,34.53,2.35,70.59-6.57,106.86Z"/>
  <path class="cls-1" d="m938.17,227.44c-69.21,0-129.55,47.09-146.33,114.26l-33.82,135.32-20.48,84.61-62.99,260.51c-149.34-6.13-265.51-120.88-282.79-260.51-4.31-34.75-2.48-71.03,6.49-107.58,16.31-66.53,54.3-123.17,105.31-163.2,51.01-40.03,115.11-63.41,183.6-63.41h251.01Z"/>
  <path class="cls-1" d="m716.67,1316.02h-420.81c-53.71,0-93.21-50.34-80.44-102.51l46.2-188.71c6.18-25.24,28.81-43,54.8-43h322.41l77.85,334.21Z"/>
  <path class="cls-1" d="m1473.42,329.99l-46.38,189.05c-6.14,25.01-28.56,42.59-54.3,42.59h-324.12l19.93-82.43h.52l15.76-65.73c.8-3.31,1.49-6.65,2.04-9.94v-.06c1.49-8.59,2.18-17.12,2.18-25.51,0-80.88-65.64-150.53-150.89-150.53h454.82c53.73,0,93.23,50.37,80.43,102.55Z"/>
</svg>